<?xml version="1.0" encoding="UTF-8" ?>
<svg version="1.1" width="88" height="31" xmlns="http://www.w3.org/2000/svg" shape-rendering="crispEdges">
<rect x="35" y="3" width="2" height="1" fill="#FFFFFF" />
<rect x="38" y="3" width="2" height="1" fill="#FFFFFF" />
<rect x="28" y="4" width="1" height="1" fill="#FFFFFF" />
<rect x="34" y="4" width="1" height="2" fill="#FFFFFF" />
<rect x="37" y="4" width="1" height="1" fill="#FFFFFF" />
<rect x="40" y="4" width="1" height="2" fill="#FFFFFF" />
<rect x="7" y="5" width="1" height="1" fill="#FFFFFF" />
<rect x="16" y="5" width="1" height="1" fill="#FFFFFF" />
<rect x="27" y="5" width="1" height="4" fill="#FFFFFF" />
<rect x="29" y="5" width="1" height="1" fill="#FFFFFF" />
<rect x="6" y="6" width="1" height="2" fill="#FFFFFF" />
<rect x="8" y="6" width="1" height="2" fill="#FFFFFF" />
<rect x="15" y="6" width="1" height="1" fill="#FFFFFF" />
<rect x="17" y="6" width="1" height="4" fill="#FFFFFF" />
<rect x="30" y="6" width="1" height="1" fill="#FFFFFF" />
<rect x="35" y="6" width="1" height="1" fill="#FFFFFF" />
<rect x="39" y="6" width="1" height="1" fill="#FFFFFF" />
<rect x="14" y="7" width="1" height="3" fill="#FFFFFF" />
<rect x="31" y="7" width="1" height="3" fill="#FFFFFF" />
<rect x="36" y="7" width="1" height="1" fill="#FFFFFF" />
<rect x="38" y="7" width="1" height="1" fill="#FFFFFF" />
<rect x="7" y="8" width="1" height="1" fill="#FFFFFF" />
<rect x="37" y="8" width="1" height="1" fill="#FFFFFF" />
<rect x="22" y="9" width="5" height="1" fill="#FFFFFF" />
<rect x="13" y="10" width="1" height="4" fill="#FFFFFF" />
<rect x="18" y="10" width="4" height="1" fill="#FFFFFF" />
<rect x="32" y="10" width="1" height="1" fill="#FFFFFF" />
<rect x="33" y="11" width="1" height="1" fill="#FFFFFF" />
<rect x="37" y="11" width="3" height="1" fill="#FFFFFF" />
<rect x="63" y="11" width="1" height="8" fill="#FFFFFF" />
<rect x="34" y="12" width="1" height="2" fill="#FFFFFF" />
<rect x="36" y="12" width="1" height="1" fill="#FFFFFF" />
<rect x="26" y="13" width="2" height="2" fill="#FFFFFF" />
<rect x="35" y="13" width="1" height="1" fill="#FFFFFF" />
<rect x="37" y="13" width="4" height="1" fill="#FFFFFF" />
<rect x="51" y="13" width="1" height="2" fill="#FFFFFF" />
<rect x="55" y="13" width="1" height="2" fill="#FFFFFF" />
<rect x="58" y="13" width="2" height="1" fill="#FFFFFF" />
<rect x="67" y="13" width="2" height="1" fill="#FFFFFF" />
<rect x="72" y="13" width="3" height="1" fill="#FFFFFF" />
<rect x="12" y="14" width="1" height="1" fill="#FFFFFF" />
<rect x="18" y="14" width="2" height="2" fill="#FFFFFF" />
<rect x="36" y="14" width="2" height="1" fill="#FFFFFF" />
<rect x="60" y="14" width="1" height="4" fill="#FFFFFF" />
<rect x="66" y="14" width="1" height="4" fill="#FFFFFF" />
<rect x="69" y="14" width="1" height="1" fill="#FFFFFF" />
<rect x="72" y="14" width="1" height="5" fill="#FFFFFF" />
<rect x="75" y="14" width="1" height="5" fill="#FFFFFF" />
<rect x="7" y="15" width="3" height="1" fill="#FFFFFF" />
<rect x="11" y="15" width="1" height="1" fill="#FFFFFF" />
<rect x="35" y="15" width="1" height="3" fill="#FFFFFF" />
<rect x="52" y="15" width="1" height="2" fill="#FFFFFF" />
<rect x="54" y="15" width="1" height="2" fill="#FFFFFF" />
<rect x="58" y="15" width="2" height="1" fill="#FFFFFF" />
<rect x="67" y="15" width="2" height="1" fill="#FFFFFF" />
<rect x="10" y="16" width="1" height="1" fill="#FFFFFF" />
<rect x="36" y="16" width="5" height="1" fill="#FFFFFF" />
<rect x="57" y="16" width="1" height="2" fill="#FFFFFF" />
<rect x="4" y="17" width="2" height="1" fill="#FFFFFF" />
<rect x="8" y="17" width="2" height="1" fill="#FFFFFF" />
<rect x="53" y="17" width="1" height="2" fill="#FFFFFF" />
<rect x="69" y="17" width="1" height="1" fill="#FFFFFF" />
<rect x="6" y="18" width="2" height="1" fill="#FFFFFF" />
<rect x="9" y="18" width="2" height="1" fill="#FFFFFF" />
<rect x="23" y="18" width="1" height="1" fill="#FFFFFF" />
<rect x="27" y="18" width="1" height="1" fill="#FFFFFF" />
<rect x="34" y="18" width="1" height="1" fill="#FFFFFF" />
<rect x="58" y="18" width="2" height="1" fill="#FFFFFF" />
<rect x="67" y="18" width="2" height="1" fill="#FFFFFF" />
<rect x="8" y="19" width="1" height="1" fill="#FFFFFF" />
<rect x="10" y="19" width="1" height="1" fill="#FFFFFF" />
<rect x="19" y="19" width="1" height="1" fill="#FFFFFF" />
<rect x="21" y="19" width="2" height="1" fill="#FFFFFF" />
<rect x="24" y="19" width="3" height="1" fill="#FFFFFF" />
<rect x="33" y="19" width="1" height="1" fill="#FFFFFF" />
<rect x="7" y="20" width="1" height="1" fill="#FFFFFF" />
<rect x="11" y="20" width="1" height="1" fill="#FFFFFF" />
<rect x="20" y="20" width="2" height="1" fill="#FFFFFF" />
<rect x="32" y="20" width="1" height="1" fill="#FFFFFF" />
<rect x="5" y="21" width="2" height="1" fill="#FFFFFF" />
<rect x="12" y="21" width="1" height="1" fill="#FFFFFF" />
<rect x="31" y="21" width="1" height="1" fill="#FFFFFF" />
<rect x="13" y="22" width="1" height="1" fill="#FFFFFF" />
<rect x="29" y="22" width="2" height="1" fill="#FFFFFF" />
<rect x="14" y="23" width="4" height="1" fill="#FFFFFF" />
<rect x="23" y="23" width="6" height="1" fill="#FFFFFF" />
<rect x="36" y="23" width="1" height="1" fill="#FFFFFF" />
<rect x="6" y="24" width="1" height="1" fill="#FFFFFF" />
<rect x="8" y="24" width="1" height="1" fill="#FFFFFF" />
<rect x="18" y="24" width="6" height="1" fill="#FFFFFF" />
<rect x="35" y="24" width="1" height="1" fill="#FFFFFF" />
<rect x="37" y="24" width="1" height="1" fill="#FFFFFF" />
<rect x="7" y="25" width="1" height="1" fill="#FFFFFF" />
<rect x="36" y="25" width="1" height="1" fill="#FFFFFF" />
<rect x="6" y="26" width="1" height="1" fill="#FFFFFF" />
<rect x="8" y="26" width="1" height="1" fill="#FFFFFF" />
</svg>